<?xml version="1.0" encoding="utf-8"?>
<!-- Generator: Adobe Illustrator 23.0.1, SVG Export Plug-In . SVG Version: 6.00 Build 0)  -->
<svg version="1.1" id="Layer_1" xmlns="http://www.w3.org/2000/svg" xmlns:xlink="http://www.w3.org/1999/xlink" x="0px" y="0px"
	 width="383.7px" height="363.5px" viewBox="0 0 383.7 363.5" style="enable-background:new 0 0 383.7 363.5;" xml:space="preserve"
	>
<style type="text/css">
	.st0{fill:#A9EADA;}
	.st1{fill:none;stroke:#FFFFFF;stroke-width:14;stroke-linecap:round;stroke-linejoin:round;}
	.st2{enable-background:new    ;}
	.st3{fill:#4D103C;}
</style>
<title>Capricorn</title>
<circle class="st0" cx="194.5" cy="130.2" r="129.9"/>
<path id="capricorn_sign" class="st1" d="M130.3,65.1c0,0,12.3-1.6,17.1,6.9c8.1,14.7,14.2,89.2,14.2,89.2s-4.9-96.1,27.5-96.1
	c32.8,0,9.2,78.4,26.3,101s42.2,13.7,47.6,0c5.7-14.2-4.5-32.2-23.8-31.8c-36.9,0.8-23,61.1-44.4,61.1"/>
<g class="st2">
	<path class="st3" d="M51,347.5c-2.7,5.3-8.4,9-14.8,9c-9,0-16.6-7.3-16.6-16.2c0-8.9,7.6-16.2,16.6-16.2c6.4,0,12,3.6,14.8,8.9
		l-7.3,3.3c-1.4-2.6-4.2-4.4-7.5-4.4c-4.7,0-8.5,3.8-8.5,8.5c0,4.7,3.8,8.5,8.5,8.5c3.3,0,6.1-1.8,7.5-4.4L51,347.5z"/>
</g>
<g class="st2">
	<path class="st3" d="M79.7,324.6l12.6,31.2h-8.7l-1.7-4.6H69.6l-1.7,4.6h-8.7l12.6-31.2H79.7z M75.8,334.9l-3.4,9.2h6.8L75.8,334.9
		z"/>
	<path class="st3" d="M103.9,324.6h13.8c8.3,0,12.2,5.7,12.2,12c0,6.6-4,12.2-12.2,12.2h-5.8v7.1h-8V324.6z M111.9,331.9v9.6h5.3
		c3.4,0,4.6-2.1,4.6-4.8c0-2.5-1.2-4.7-4.6-4.7H111.9z"/>
	<path class="st3" d="M157.5,324.6c8,0,11.7,5.2,11.7,11.4c0,4.4-2,8.4-6.2,10.4l6.8,9.4h-9.6l-5.9-8.4h-4.1v8.4h-8v-31.2H157.5z
		 M150.2,331.9v8.3h6.8c3.2,0,4.4-2,4.4-4.1c0-2.4-1.2-4.2-4.4-4.2H150.2z"/>
	<path class="st3" d="M190.1,324.6v31.2h-8v-31.2H190.1z"/>
	<path class="st3" d="M233.9,347.5c-2.7,5.3-8.4,9-14.8,9c-9,0-16.6-7.3-16.6-16.2c0-8.9,7.6-16.2,16.6-16.2c6.4,0,12,3.6,14.8,8.9
		l-7.3,3.3c-1.4-2.6-4.2-4.4-7.5-4.4c-4.7,0-8.5,3.8-8.5,8.5c0,4.7,3.8,8.5,8.5,8.5c3.3,0,6.1-1.8,7.5-4.4L233.9,347.5z"/>
	<path class="st3" d="M261,324c9.1,0,16.6,7.3,16.6,16.2c0,8.9-7.4,16.2-16.6,16.2c-9,0-16.6-7.3-16.6-16.2
		C244.5,331.3,252,324,261,324z M261,348.7c4.8,0,8.5-3.8,8.5-8.5c0-4.7-3.7-8.5-8.5-8.5c-4.7,0-8.5,3.8-8.5,8.5
		C252.5,345,256.3,348.7,261,348.7z"/>
	<path class="st3" d="M305.3,324.6c8,0,11.7,5.2,11.7,11.4c0,4.4-2,8.4-6.2,10.4l6.8,9.4h-9.6l-5.9-8.4h-4.1v8.4h-8v-31.2H305.3z
		 M298.1,331.9v8.3h6.8c3.2,0,4.4-2,4.4-4.1c0-2.4-1.2-4.2-4.4-4.2H298.1z"/>
	<path class="st3" d="M329.9,355.8v-31.2h6.8l13.9,17.4v-17.4h8v31.2h-6.8l-13.9-17.4v17.4H329.9z"/>
</g>
</svg>
