<?xml version="1.0" encoding="utf-8"?>
<!-- Generator: Adobe Illustrator 23.0.1, SVG Export Plug-In . SVG Version: 6.00 Build 0)  -->
<svg version="1.1" id="Layer_1" xmlns="http://www.w3.org/2000/svg" xmlns:xlink="http://www.w3.org/1999/xlink" x="0px" y="0px"
	 width="383.7px" height="363.5px" viewBox="0 0 383.7 363.5" style="enable-background:new 0 0 383.7 363.5;" xml:space="preserve"
	>
<style type="text/css">
	.st0{fill:#A9EADA;}
	.st1{fill:none;stroke:#FFFFFF;stroke-width:14;stroke-linecap:round;stroke-linejoin:round;}
	.st2{enable-background:new    ;}
	.st3{fill:#4D103C;}
</style>
<title>Taurus</title>
<circle class="st0" cx="194.5" cy="130.2" r="129.9"/>
<g id="taurus_symbol">
	<circle class="st1" cx="194.5" cy="151.3" r="38.4"/>
	<path class="st1" d="M142.3,70.7c13.8,4.5,13.8,42.3,54,42.3c36.5,0,36.5-38.6,50.3-42.3"/>
</g>
<g class="st2">
	<path class="st3" d="M81.8,324.6h27.4v7.8h-9.7v23.4h-8v-23.4h-9.7V324.6z"/>
</g>
<g class="st2">
	<path class="st3" d="M134.7,324.6l12.6,31.2h-8.7l-1.7-4.6h-12.3l-1.7,4.6h-8.7l12.6-31.2H134.7z M130.7,334.9l-3.4,9.2h6.8
		L130.7,334.9z"/>
</g>
<g class="st2">
	<path class="st3" d="M185.6,324.6v17.6c0,8-5,14.2-14.4,14.2c-9.4,0-14.3-6.2-14.3-14.2v-17.6h8v17.1c0,4.5,2.2,7,6.3,7
		c4.2,0,6.4-2.5,6.4-7v-17.1H185.6z"/>
	<path class="st3" d="M214.4,324.6c8,0,11.7,5.2,11.7,11.4c0,4.4-2,8.4-6.2,10.4l6.8,9.4h-9.6l-5.9-8.4h-4.1v8.4h-8v-31.2H214.4z
		 M207.1,331.9v8.3h6.8c3.2,0,4.4-2,4.4-4.1c0-2.4-1.2-4.2-4.4-4.2H207.1z"/>
	<path class="st3" d="M267.3,324.6v17.6c0,8-5,14.2-14.4,14.2c-9.4,0-14.3-6.2-14.3-14.2v-17.6h8v17.1c0,4.5,2.2,7,6.3,7
		c4.2,0,6.4-2.5,6.4-7v-17.1H267.3z"/>
	<path class="st3" d="M287.4,346.5v0.2c0,1.2,1.6,2.8,5.3,2.8c3,0,4-1,4-1.9c0-1.3-1.6-2.1-5.3-3.4c-5-1.6-11.5-4-11.5-10.5
		c0-6,5.1-9.7,12.2-9.7c7.3,0,12.8,3.9,12.8,10.1v0.4H297v-0.3c0-1.5-1.6-3.3-4.8-3.3c-2.7,0-3.8,1.1-3.8,2.1c0,1.2,1.4,1.9,5.2,3.2
		c4.3,1.5,11.7,4.1,11.7,10.9c0,6.1-5.3,9.3-12.4,9.3c-7.5,0-13.2-3.5-13.2-9.6v-0.4H287.4z"/>
</g>
</svg>
