<?xml version="1.0" encoding="utf-8"?>
<!-- Generator: Adobe Illustrator 23.0.1, SVG Export Plug-In . SVG Version: 6.00 Build 0)  -->
<svg version="1.1" id="Layer_1" xmlns="http://www.w3.org/2000/svg" xmlns:xlink="http://www.w3.org/1999/xlink" x="0px" y="0px"
	 width="383.7px" height="363.5px" viewBox="0 0 383.7 363.5" style="enable-background:new 0 0 383.7 363.5;" xml:space="preserve"
	>
<style type="text/css">
	.st0{fill:#D9CFFF;}
	.st1{fill:none;stroke:#FFFFFF;stroke-width:14;stroke-linecap:round;stroke-linejoin:round;}
	.st2{enable-background:new    ;}
	.st3{fill:#4D103C;}
</style>
<title>Aquarius</title>
<circle class="st0" cx="194.5" cy="130.1" r="129.9"/>
<g id="aquarius_symbol">
	<polyline class="st1" points="121.1,112.2 156.4,86.4 168,112.2 204.3,86.4 216.5,113.3 251.6,86.4 263.9,112.2 	"/>
	<polyline class="st1" points="121.1,170.7 156.4,144.9 168,170.7 204.3,144.9 216.5,171.8 251.6,144.9 263.9,170.7 	"/>
</g>
<g class="st2">
	<path class="st3" d="M67,324.5l12.6,31.2h-8.7l-1.7-4.6H56.9l-1.7,4.6h-8.7l12.6-31.2H67z M63.1,334.8l-3.4,9.2h6.8L63.1,334.8z"/>
</g>
<g class="st2">
	<path class="st3" d="M104.3,323.9c9.1,0,16.6,7.3,16.6,16.2c0,5.9-3.2,11.1-8.1,13.9c1.4,1,2.7,1.7,4.1,1.7c0.4,0,1.9-0.1,2.7-1.4
		l6,4.9c-2.2,3.1-5.9,4.2-8.7,4.2c-6.3,0-9.9-5.6-15.3-7.4c-7.8-1.2-13.8-8-13.8-16C87.8,331.2,95.3,323.9,104.3,323.9z
		 M104.3,348.6c4.8,0,8.5-3.8,8.5-8.5c0-4.7-3.7-8.5-8.5-8.5c-4.7,0-8.5,3.8-8.5,8.5C95.8,344.9,99.6,348.6,104.3,348.6z"/>
</g>
<g class="st2">
	<path class="st3" d="M161.7,324.5v17.6c0,8-5,14.2-14.4,14.2c-9.4,0-14.3-6.2-14.3-14.2v-17.6h8v17.1c0,4.5,2.2,7,6.3,7
		c4.2,0,6.4-2.5,6.4-7v-17.1H161.7z"/>
</g>
<g class="st2">
	<path class="st3" d="M191.9,324.5l12.6,31.2h-8.7l-1.7-4.6h-12.3l-1.7,4.6h-8.7l12.6-31.2H191.9z M187.9,334.8l-3.4,9.2h6.8
		L187.9,334.8z"/>
	<path class="st3" d="M231.3,324.5c8,0,11.7,5.2,11.7,11.4c0,4.4-2,8.4-6.2,10.4l6.8,9.4H234l-5.9-8.4H224v8.4h-8v-31.2H231.3z
		 M224,331.8v8.3h6.8c3.2,0,4.4-2,4.4-4.1c0-2.4-1.2-4.2-4.4-4.2H224z"/>
	<path class="st3" d="M263.9,324.5v31.2h-8v-31.2H263.9z"/>
	<path class="st3" d="M306.2,324.5v17.6c0,8-5,14.2-14.4,14.2c-9.4,0-14.3-6.2-14.3-14.2v-17.6h8v17.1c0,4.5,2.2,7,6.3,7
		c4.2,0,6.4-2.5,6.4-7v-17.1H306.2z"/>
	<path class="st3" d="M326.3,346.4v0.2c0,1.2,1.6,2.8,5.3,2.8c3,0,4-1,4-1.9c0-1.3-1.6-2.1-5.3-3.4c-5-1.6-11.5-4-11.5-10.5
		c0-6,5.1-9.7,12.2-9.7c7.3,0,12.8,3.9,12.8,10.1v0.4h-7.8v-0.3c0-1.5-1.6-3.3-4.8-3.3c-2.7,0-3.8,1.1-3.8,2.1
		c0,1.2,1.4,1.9,5.2,3.2c4.3,1.5,11.7,4.1,11.7,10.9c0,6.1-5.3,9.3-12.4,9.3c-7.5,0-13.2-3.5-13.2-9.6v-0.4H326.3z"/>
</g>
</svg>
