<?xml version="1.0" encoding="utf-8"?>
<!-- Generator: Adobe Illustrator 23.0.1, SVG Export Plug-In . SVG Version: 6.00 Build 0)  -->
<svg version="1.1" id="Layer_1" xmlns="http://www.w3.org/2000/svg" xmlns:xlink="http://www.w3.org/1999/xlink" x="0px" y="0px"
	 width="383.7px" height="363.5px" viewBox="0 0 383.7 363.5" style="enable-background:new 0 0 383.7 363.5;" xml:space="preserve"
	>
<style type="text/css">
	.st0{fill:#FFC2D2;}
	.st1{fill:none;stroke:#FFFFFF;stroke-width:14;stroke-linecap:round;stroke-linejoin:round;}
	.st2{enable-background:new    ;}
	.st3{fill:#4D103C;}
</style>
<title>Aries</title>
<circle class="st0" cx="194.5" cy="130.2" r="129.9"/>
<path id="aries_symbol" class="st1" d="M158.9,124.8c-13.6,15.7-39.2-6.2-27.2-34.5c10.4-24.5,35.7-25.6,49.3-0.3
	c17.2,32,15.4,99.8,15.4,99.8s-0.7-75.8,12-101.1c15.3-30.5,49.3-19.5,51.7,13.3c1.7,23.8-20.6,38.6-32.8,24.3"/>
<g class="st2">
	<path class="st3" d="M126.8,324.6l12.6,31.2h-8.7l-1.7-4.6h-12.3l-1.7,4.6h-8.7l12.6-31.2H126.8z M122.9,334.9l-3.4,9.2h6.8
		L122.9,334.9z"/>
	<path class="st3" d="M166.3,324.6c8,0,11.7,5.2,11.7,11.4c0,4.4-2,8.4-6.2,10.4l6.8,9.4H169l-5.9-8.4H159v8.4h-8v-31.2H166.3z
		 M159,331.9v8.3h6.8c3.2,0,4.4-2,4.4-4.1c0-2.4-1.2-4.2-4.4-4.2H159z"/>
	<path class="st3" d="M198.9,324.6v31.2h-8v-31.2H198.9z"/>
	<path class="st3" d="M212.9,324.6h24v7.8h-16v4.5H234v7.2h-13.1v4h16v7.7h-24V324.6z"/>
	<path class="st3" d="M256.5,346.5v0.2c0,1.2,1.6,2.8,5.3,2.8c3,0,4-1,4-1.9c0-1.3-1.6-2.1-5.3-3.4c-5-1.6-11.5-4-11.5-10.5
		c0-6,5.1-9.7,12.2-9.7c7.3,0,12.8,3.9,12.8,10.1v0.4h-7.8v-0.3c0-1.5-1.6-3.3-4.8-3.3c-2.7,0-3.8,1.1-3.8,2.1
		c0,1.2,1.4,1.9,5.2,3.2c4.3,1.5,11.7,4.1,11.7,10.9c0,6.1-5.3,9.3-12.4,9.3c-7.5,0-13.2-3.5-13.2-9.6v-0.4H256.5z"/>
</g>
</svg>
