<?xml version="1.0" encoding="utf-8"?>
<!-- Generator: Adobe Illustrator 23.0.1, SVG Export Plug-In . SVG Version: 6.00 Build 0)  -->
<svg version="1.1" id="Layer_1" xmlns="http://www.w3.org/2000/svg" xmlns:xlink="http://www.w3.org/1999/xlink" x="0px" y="0px"
	 width="383.7px" height="363.5px" viewBox="0 0 383.7 363.5" style="enable-background:new 0 0 383.7 363.5;" xml:space="preserve"
	>
<style type="text/css">
	.st0{fill:#ABEBFF;}
	.st1{fill:none;stroke:#FFFFFF;stroke-width:14;stroke-linecap:round;stroke-linejoin:round;}
	.st2{enable-background:new    ;}
	.st3{fill:#4D103C;}
</style>
<title>Cancer</title>
<circle class="st0" cx="194.5" cy="130.2" r="129.9"/>
<g id="cancer_symbol">
	<path class="st1" d="M249.9,94.1C216.3,63.7,137,63.3,129.1,106c-6.8,36.3,42.1,40.2,48.4,13.6c8.6-36.8-44.7-46.1-48.9-9.5"/>
	<path class="st1" d="M139,166.3c33.6,30.4,112.9,30.7,120.9-11.9c6.8-36.3-42.1-40.2-48.4-13.6c-8.6,36.8,44.7,46.1,48.9,9.5"/>
</g>
<g class="st2">
	<path class="st3" d="M105.6,347.5c-2.7,5.3-8.4,9-14.8,9c-9,0-16.6-7.3-16.6-16.2c0-8.9,7.6-16.2,16.6-16.2c6.4,0,12,3.6,14.8,8.9
		l-7.3,3.3c-1.4-2.6-4.2-4.4-7.5-4.4c-4.7,0-8.5,3.8-8.5,8.5c0,4.7,3.8,8.5,8.5,8.5c3.3,0,6.1-1.8,7.5-4.4L105.6,347.5z"/>
</g>
<g class="st2">
	<path class="st3" d="M134.4,324.6l12.6,31.2h-8.7l-1.7-4.6h-12.3l-1.7,4.6h-8.7l12.6-31.2H134.4z M130.4,334.9L127,344h6.8
		L130.4,334.9z"/>
	<path class="st3" d="M158.6,355.8v-31.2h6.8l13.9,17.4v-17.4h8v31.2h-6.8l-13.9-17.4v17.4H158.6z"/>
	<path class="st3" d="M231.1,347.5c-2.7,5.3-8.4,9-14.8,9c-9,0-16.6-7.3-16.6-16.2c0-8.9,7.6-16.2,16.6-16.2c6.4,0,12,3.6,14.8,8.9
		l-7.3,3.3c-1.4-2.6-4.2-4.4-7.5-4.4c-4.7,0-8.5,3.8-8.5,8.5c0,4.7,3.8,8.5,8.5,8.5c3.3,0,6.1-1.8,7.5-4.4L231.1,347.5z"/>
	<path class="st3" d="M243.1,324.6h24v7.8h-16v4.5h13.1v7.2h-13.1v4h16v7.7h-24V324.6z"/>
	<path class="st3" d="M295.4,324.6c8,0,11.7,5.2,11.7,11.4c0,4.4-2,8.4-6.2,10.4l6.8,9.4h-9.6l-5.9-8.4h-4.1v8.4h-8v-31.2H295.4z
		 M288.1,331.9v8.3h6.8c3.2,0,4.4-2,4.4-4.1c0-2.4-1.2-4.2-4.4-4.2H288.1z"/>
</g>
</svg>
