<?xml version="1.0" encoding="utf-8"?>
<!-- Generator: Adobe Illustrator 23.0.1, SVG Export Plug-In . SVG Version: 6.00 Build 0)  -->
<svg version="1.1" id="Layer_1" xmlns="http://www.w3.org/2000/svg" xmlns:xlink="http://www.w3.org/1999/xlink" x="0px" y="0px"
	 width="383.7px" height="363.5px" viewBox="0 0 383.7 363.5" style="enable-background:new 0 0 383.7 363.5;" xml:space="preserve"
	>
<style type="text/css">
	.st0{fill:#FFC2D2;}
	.st1{fill:none;stroke:#FFFFFF;stroke-width:14;stroke-linecap:round;stroke-linejoin:round;}
	.st2{enable-background:new    ;}
	.st3{fill:#4D103C;}
</style>
<title>Leo</title>
<circle class="st0" cx="194.5" cy="130.2" r="129.9"/>
<g id="leo_symbol">
	<circle class="st1" cx="157.9" cy="136.8" r="24.5"/>
	<path class="st1" d="M174.8,118.7c-6.2-13.8-4.8-32.6,3.7-45.2c10.2-15.1,32.1-18.3,46.5-7c13.3,10.4,14.7,27.3,10.2,42.5
		c-7.4,25.2-30.6,41.9-38.3,66.9c-1.5,4.9-1.8,10.3,0.3,15c3.6,8.2,13.1,11.9,21.3,8.3c4.1-1.8,7.2-5.2,8.7-9.4"/>
</g>
<g class="st2">
	<path class="st3" d="M140,324.6h8v23.5h15v7.7H140V324.6z"/>
</g>
<g class="st2">
	<path class="st3" d="M175.1,324.6h24v7.8h-16v4.5h13.1v7.2h-13.1v4h16v7.7h-24V324.6z"/>
</g>
<g class="st2">
	<path class="st3" d="M226.6,324c9.1,0,16.6,7.3,16.6,16.2c0,8.9-7.4,16.2-16.6,16.2c-9,0-16.6-7.3-16.6-16.2
		C210.1,331.3,217.6,324,226.6,324z M226.6,348.7c4.8,0,8.5-3.8,8.5-8.5c0-4.7-3.7-8.5-8.5-8.5c-4.7,0-8.5,3.8-8.5,8.5
		C218.1,345,221.9,348.7,226.6,348.7z"/>
</g>
</svg>
