<?xml version="1.0" encoding="utf-8"?>
<!-- Generator: Adobe Illustrator 23.0.1, SVG Export Plug-In . SVG Version: 6.00 Build 0)  -->
<svg version="1.1" id="Layer_1" xmlns="http://www.w3.org/2000/svg" xmlns:xlink="http://www.w3.org/1999/xlink" x="0px" y="0px"
	 width="383.7px" height="363.5px" viewBox="0 0 383.7 363.5" style="enable-background:new 0 0 383.7 363.5;" xml:space="preserve"
	>
<style type="text/css">
	.st0{fill:#D9CFFF;}
	.st1{fill:none;stroke:#FFFFFF;stroke-width:14;stroke-linecap:round;stroke-linejoin:round;}
	.st2{enable-background:new    ;}
	.st3{fill:#4D103C;}
</style>
<title>Libra</title>
<circle class="st0" cx="194.5" cy="130.2" r="129.9"/>
<g id="libra_symbol">
	<path class="st1" d="M129.6,142.8l36.6,0.1c-8.3-7.9-12.1-24.3-5-38.4c12.2-24.3,42.2-23.9,56.4-12.4c11.7,9.5,15.6,21.9,13.6,35
		c-1.1,7-4,11.2-8.8,16h37.2"/>
	<line class="st1" x1="129.6" y1="175.9" x2="259.4" y2="175.9"/>
</g>
<g class="st2">
	<path class="st3" d="M113.7,324.6h8v23.5h15v7.7h-22.9V324.6z"/>
	<path class="st3" d="M156.8,324.6v31.2h-8v-31.2H156.8z"/>
	<path class="st3" d="M170.8,324.6h15.5c6.7,0,10.1,3.6,10.1,8.6c0,3.2-1.5,5.3-3.8,6.6c3.2,1.2,5.2,3.6,5.2,7.2
		c0,5.2-3.8,8.8-10.2,8.8h-16.9V324.6z M178.8,331.9v5h6.6c2.2,0,3-1,3-2.5s-0.8-2.5-2.5-2.5H178.8z M178.8,343.1v5.5h8
		c2.2,0,3-1.2,3-2.8c0-1.6-0.8-2.7-3-2.7H178.8z"/>
</g>
<g class="st2">
	<path class="st3" d="M225.7,324.6c8,0,11.7,5.2,11.7,11.4c0,4.4-2,8.4-6.2,10.4l6.8,9.4h-9.6l-5.9-8.4h-4.1v8.4h-8v-31.2H225.7z
		 M218.4,331.9v8.3h6.8c3.2,0,4.4-2,4.4-4.1c0-2.4-1.2-4.2-4.4-4.2H218.4z"/>
</g>
<g class="st2">
	<path class="st3" d="M267.9,324.6l12.6,31.2h-8.7l-1.7-4.6h-12.3l-1.7,4.6h-8.7l12.6-31.2H267.9z M263.9,334.9l-3.4,9.2h6.8
		L263.9,334.9z"/>
</g>
</svg>
