<?xml version="1.0" encoding="utf-8"?>
<!-- Generator: Adobe Illustrator 23.0.1, SVG Export Plug-In . SVG Version: 6.00 Build 0)  -->
<svg version="1.1" id="Layer_1" xmlns="http://www.w3.org/2000/svg" xmlns:xlink="http://www.w3.org/1999/xlink" x="0px" y="0px"
	 width="383.7px" height="363.5px" viewBox="0 0 383.7 363.5" style="enable-background:new 0 0 383.7 363.5;" xml:space="preserve"
	>
<style type="text/css">
	.st0{fill:#ABEBFF;}
	.st1{fill:none;stroke:#FFFFFF;stroke-width:14;stroke-linecap:round;stroke-linejoin:round;}
	.st2{enable-background:new    ;}
	.st3{fill:#4D103C;}
</style>
<title>Pisces</title>
<circle class="st0" cx="194.5" cy="130.2" r="129.9"/>
<g id="pisces_symbol">
	<path class="st1" d="M148.9,66.8c0,0,47.9,63.3,0,126.7"/>
	<path class="st1" d="M240,66.8c0,0-47.9,63.3,0,126.7"/>
	<line class="st1" x1="148.9" y1="130.2" x2="240" y2="130.2"/>
</g>
<g class="st2">
	<path class="st3" d="M94.1,324.6h13.8c8.3,0,12.2,5.7,12.2,12c0,6.6-4,12.2-12.2,12.2h-5.8v7.1h-8V324.6z M102.1,331.9v9.6h5.3
		c3.4,0,4.6-2.1,4.6-4.8c0-2.5-1.2-4.7-4.6-4.7H102.1z"/>
	<path class="st3" d="M140.4,324.6v31.2h-8v-31.2H140.4z"/>
	<path class="st3" d="M160.9,346.5v0.2c0,1.2,1.6,2.8,5.3,2.8c3,0,4-1,4-1.9c0-1.3-1.6-2.1-5.3-3.4c-5-1.6-11.5-4-11.5-10.5
		c0-6,5.1-9.7,12.2-9.7c7.3,0,12.8,3.9,12.8,10.1v0.4h-7.8v-0.3c0-1.5-1.6-3.3-4.8-3.3c-2.7,0-3.8,1.1-3.8,2.1
		c0,1.2,1.4,1.9,5.2,3.2c4.3,1.5,11.7,4.1,11.7,10.9c0,6.1-5.3,9.3-12.4,9.3c-7.5,0-13.2-3.5-13.2-9.6v-0.4H160.9z"/>
	<path class="st3" d="M221.4,347.5c-2.7,5.3-8.4,9-14.8,9c-9,0-16.6-7.3-16.6-16.2c0-8.9,7.6-16.2,16.6-16.2c6.4,0,12,3.6,14.8,8.9
		l-7.3,3.3c-1.4-2.6-4.2-4.4-7.5-4.4c-4.7,0-8.5,3.8-8.5,8.5c0,4.7,3.8,8.5,8.5,8.5c3.3,0,6.1-1.8,7.5-4.4L221.4,347.5z"/>
	<path class="st3" d="M233.4,324.6h24v7.8h-16v4.5h13.1v7.2h-13.1v4h16v7.7h-24V324.6z"/>
	<path class="st3" d="M277,346.5v0.2c0,1.2,1.6,2.8,5.3,2.8c3,0,4-1,4-1.9c0-1.3-1.6-2.1-5.3-3.4c-5-1.6-11.5-4-11.5-10.5
		c0-6,5.1-9.7,12.2-9.7c7.3,0,12.8,3.9,12.8,10.1v0.4h-7.8v-0.3c0-1.5-1.6-3.3-4.8-3.3c-2.7,0-3.8,1.1-3.8,2.1
		c0,1.2,1.4,1.9,5.2,3.2c4.3,1.5,11.7,4.1,11.7,10.9c0,6.1-5.3,9.3-12.4,9.3c-7.5,0-13.2-3.5-13.2-9.6v-0.4H277z"/>
</g>
</svg>
