<?xml version="1.0" encoding="utf-8"?>
<!-- Generator: Adobe Illustrator 23.0.1, SVG Export Plug-In . SVG Version: 6.00 Build 0)  -->
<svg version="1.1" id="Layer_1" xmlns="http://www.w3.org/2000/svg" xmlns:xlink="http://www.w3.org/1999/xlink" x="0px" y="0px"
	 width="383.7px" height="363.5px" viewBox="0 0 383.7 363.5" style="enable-background:new 0 0 383.7 363.5;" xml:space="preserve"
	>
<style type="text/css">
	.st0{fill:#FFC2D2;}
	.st1{fill:none;stroke:#FFFFFF;stroke-width:14;stroke-linecap:round;stroke-linejoin:round;}
	.st2{enable-background:new    ;}
	.st3{fill:#4D103C;}
</style>
<title>Artboard 1</title>
<circle class="st0" cx="194.4" cy="130.1" r="129.9"/>
<g id="sag_symbol">
	<line class="st1" x1="141.2" y1="188.9" x2="243.8" y2="71.2"/>
	<polyline class="st1" points="196.9,71.2 247.7,71.2 247.7,120.5 	"/>
	<line class="st1" x1="147.5" y1="126.2" x2="201.7" y2="172.1"/>
</g>
<g class="st2">
	<path class="st3" d="M8,346.4v0.2c0,1.2,1.6,2.8,5.3,2.8c3,0,4-1,4-1.9c0-1.3-1.6-2.1-5.3-3.4c-5-1.6-11.5-4-11.5-10.5
		c0-6,5.1-9.7,12.2-9.7c7.3,0,12.8,3.9,12.8,10.1v0.4h-7.8v-0.3c0-1.5-1.6-3.3-4.8-3.3C10,330.9,9,332,9,333c0,1.2,1.4,1.9,5.2,3.2
		c4.3,1.5,11.7,4.1,11.7,10.9c0,6.1-5.3,9.3-12.4,9.3c-7.5,0-13.2-3.5-13.2-9.6v-0.4H8z"/>
</g>
<g class="st2">
	<path class="st3" d="M55.2,324.6l12.6,31.2h-8.7l-1.7-4.6H45.1l-1.7,4.6h-8.7l12.6-31.2H55.2z M51.3,334.8l-3.4,9.2h6.8L51.3,334.8
		z"/>
</g>
<g class="st2">
	<path class="st3" d="M91.6,337.6h15v18.2h-6.3v-2.9c-1.5,2.3-4.7,3.5-7.9,3.5c-9,0-16.6-7.3-16.6-16.2c0-8.9,7.5-16.2,16.6-16.2
		c5.4,0,10.2,2.6,13.2,6.5l-6.5,4.4c-1.6-2-4-3.2-6.7-3.2c-4.7,0-8.5,3.8-8.5,8.5c0,4.7,3.8,8.5,8.5,8.5c2.8,0,5.2-1.4,6.7-3.6v-0.9
		h-7.6V337.6z"/>
	<path class="st3" d="M127.9,324.6v31.2h-8v-31.2H127.9z"/>
</g>
<g class="st2">
	<path class="st3" d="M140,324.6h27.4v7.8h-9.7v23.4h-8v-23.4H140V324.6z"/>
</g>
<g class="st2">
	<path class="st3" d="M178.4,324.6h27.4v7.8h-9.7v23.4h-8v-23.4h-9.7V324.6z"/>
</g>
<g class="st2">
	<path class="st3" d="M231.3,324.6l12.6,31.2h-8.7l-1.7-4.6h-12.3l-1.7,4.6h-8.7l12.6-31.2H231.3z M227.3,334.8l-3.4,9.2h6.8
		L227.3,334.8z"/>
	<path class="st3" d="M270.7,324.6c8,0,11.7,5.2,11.7,11.4c0,4.4-2,8.4-6.2,10.4l6.8,9.4h-9.6l-5.9-8.4h-4.1v8.4h-8v-31.2H270.7z
		 M263.4,331.8v8.3h6.8c3.2,0,4.4-2,4.4-4.1c0-2.4-1.2-4.2-4.4-4.2H263.4z"/>
	<path class="st3" d="M303.3,324.6v31.2h-8v-31.2H303.3z"/>
	<path class="st3" d="M345.6,324.6v17.6c0,8-5,14.2-14.4,14.2c-9.4,0-14.3-6.2-14.3-14.2v-17.6h8v17.1c0,4.5,2.2,7,6.3,7
		c4.2,0,6.4-2.5,6.4-7v-17.1H345.6z"/>
	<path class="st3" d="M365.7,346.4v0.2c0,1.2,1.6,2.8,5.3,2.8c3,0,4-1,4-1.9c0-1.3-1.6-2.1-5.3-3.4c-5-1.6-11.5-4-11.5-10.5
		c0-6,5.1-9.7,12.2-9.7c7.3,0,12.8,3.9,12.8,10.1v0.4h-7.8v-0.3c0-1.5-1.6-3.3-4.8-3.3c-2.7,0-3.8,1.1-3.8,2.1
		c0,1.2,1.4,1.9,5.2,3.2c4.3,1.5,11.7,4.1,11.7,10.9c0,6.1-5.3,9.3-12.4,9.3c-7.5,0-13.2-3.5-13.2-9.6v-0.4H365.7z"/>
</g>
</svg>
