<?xml version="1.0" encoding="utf-8"?>
<!-- Generator: Adobe Illustrator 23.0.1, SVG Export Plug-In . SVG Version: 6.00 Build 0)  -->
<svg version="1.1" id="Layer_1" xmlns="http://www.w3.org/2000/svg" xmlns:xlink="http://www.w3.org/1999/xlink" x="0px" y="0px"
	 width="383.7px" height="363.5px" viewBox="0 0 383.7 363.5" style="enable-background:new 0 0 383.7 363.5;" xml:space="preserve"
	>
<style type="text/css">
	.st0{fill:#ABEBFF;}
	.st1{fill:none;stroke:#FFFFFF;stroke-width:14;stroke-linecap:round;stroke-linejoin:round;}
	.st2{fill:#FFFFFF;}
	.st3{enable-background:new    ;}
	.st4{fill:#4D103C;}
</style>
<title>Scorpio</title>
<circle class="st0" cx="194.7" cy="130" r="129.9"/>
<g id="scorpio_symbol">
	<path class="st1" d="M145,62.7c12.9,2.9,12.2,103.1,12.2,103.1s-0.8-54.1,1.7-85.6c1.9-23.7,30.2-22.7,31.7-1.4
		c2.1,29.4,1.1,87,1.1,87s-0.6-56,0.7-83.7c1.2-25.5,30.1-24.4,31.6-3.8c2.2,31.1-14.8,113.3,24.9,111.7"/>
	<path class="st2" d="M245.8,178.5v23c0,1,0.9,1.8,1.9,1.8c0.4,0,0.7-0.1,1-0.3l16.8-11.5c0.8-0.6,1-1.7,0.4-2.6
		c-0.1-0.2-0.3-0.3-0.4-0.4L248.7,177c-0.8-0.6-2-0.4-2.6,0.5C245.9,177.8,245.8,178.1,245.8,178.5z"/>
</g>
<g class="st3">
	<path class="st4" d="M73.9,346.3v0.2c0,1.2,1.6,2.8,5.3,2.8c3,0,4-1,4-1.9c0-1.3-1.6-2.1-5.3-3.4c-5-1.6-11.5-4-11.5-10.5
		c0-6,5.1-9.7,12.2-9.7c7.3,0,12.8,3.9,12.8,10.1v0.4h-7.8v-0.3c0-1.5-1.6-3.3-4.8-3.3c-2.7,0-3.8,1.1-3.8,2.1
		c0,1.2,1.4,1.9,5.2,3.2c4.3,1.5,11.7,4.1,11.7,10.9c0,6.1-5.3,9.3-12.4,9.3c-7.5,0-13.2-3.5-13.2-9.6v-0.4H73.9z"/>
	<path class="st4" d="M134.4,347.3c-2.7,5.3-8.4,9-14.8,9c-9,0-16.6-7.3-16.6-16.2c0-8.9,7.6-16.2,16.6-16.2c6.4,0,12,3.6,14.8,8.9
		L127,336c-1.4-2.6-4.2-4.4-7.5-4.4c-4.7,0-8.5,3.8-8.5,8.5c0,4.7,3.8,8.5,8.5,8.5c3.3,0,6.1-1.8,7.5-4.4L134.4,347.3z"/>
	<path class="st4" d="M161.4,323.9c9.1,0,16.6,7.3,16.6,16.2c0,8.9-7.4,16.2-16.6,16.2c-9,0-16.6-7.3-16.6-16.2
		C144.9,331.2,152.4,323.9,161.4,323.9z M161.4,348.6c4.8,0,8.5-3.8,8.5-8.5c0-4.7-3.7-8.5-8.5-8.5c-4.7,0-8.5,3.8-8.5,8.5
		C153,344.8,156.8,348.6,161.4,348.6z"/>
	<path class="st4" d="M205.8,324.5c8,0,11.7,5.2,11.7,11.4c0,4.4-2,8.4-6.2,10.4l6.8,9.4h-9.6l-5.9-8.4h-4.1v8.4h-8v-31.2H205.8z
		 M198.5,331.8v8.3h6.8c3.2,0,4.4-2,4.4-4.1c0-2.4-1.2-4.2-4.4-4.2H198.5z"/>
	<path class="st4" d="M230.4,324.5h13.8c8.3,0,12.2,5.7,12.2,12c0,6.6-4,12.2-12.2,12.2h-5.8v7.1h-8V324.5z M238.4,331.8v9.6h5.3
		c3.4,0,4.6-2.1,4.6-4.8c0-2.5-1.2-4.7-4.6-4.7H238.4z"/>
	<path class="st4" d="M276.6,324.5v31.2h-8v-31.2H276.6z"/>
	<path class="st4" d="M305.7,323.9c9.1,0,16.6,7.3,16.6,16.2c0,8.9-7.4,16.2-16.6,16.2c-9,0-16.6-7.3-16.6-16.2
		C289.2,331.2,296.7,323.9,305.7,323.9z M305.7,348.6c4.8,0,8.5-3.8,8.5-8.5c0-4.7-3.7-8.5-8.5-8.5c-4.7,0-8.5,3.8-8.5,8.5
		C297.2,344.8,301,348.6,305.7,348.6z"/>
</g>
</svg>
