<?xml version="1.0" encoding="utf-8"?>
<!-- Generator: Adobe Illustrator 23.0.1, SVG Export Plug-In . SVG Version: 6.00 Build 0)  -->
<svg version="1.1" id="Layer_1" xmlns="http://www.w3.org/2000/svg" xmlns:xlink="http://www.w3.org/1999/xlink" x="0px" y="0px"
	 width="383.7px" height="363.5px" viewBox="0 0 383.7 363.5" style="enable-background:new 0 0 383.7 363.5;" xml:space="preserve"
	>
<style type="text/css">
	.st0{fill:#A9EADA;}
	.st1{fill:none;stroke:#FFFFFF;stroke-width:14;stroke-linecap:round;stroke-linejoin:round;}
	.st2{enable-background:new    ;}
	.st3{fill:#4D103C;}
</style>
<title>Virgo</title>
<circle class="st0" cx="194.5" cy="130.2" r="129.9"/>
<g id="virgo_symbol">
	<path class="st1" d="M141.8,65.3c13.1,3,12.4,104.8,12.4,104.8s-0.8-55,1.8-87c1.9-24,30.7-23,32.2-1.4c2.1,29.9,1.1,88.5,1.1,88.5
		s-0.6-57,0.7-85.1c1.2-26,30.6-24.8,32-3.9c2.2,31.6-11.5,92.9,12.4,115.8"/>
	<path class="st1" d="M204.7,195.1c61.3-20.3,50.8-61.9,31.4-71.4c-15.6,12.1-15.6,31.1-15.6,31.1"/>
</g>
<g class="st2">
	<path class="st3" d="M116.6,355.8L104,324.6h8.7l7.8,21l7.9-21h8.7l-12.6,31.2H116.6z"/>
	<path class="st3" d="M156.8,324.6v31.2h-8v-31.2H156.8z"/>
	<path class="st3" d="M186,324.6c8,0,11.7,5.2,11.7,11.4c0,4.4-2,8.4-6.2,10.4l6.8,9.4h-9.6l-5.9-8.4h-4.1v8.4h-8v-31.2H186z
		 M178.8,331.9v8.3h6.8c3.2,0,4.4-2,4.4-4.1c0-2.4-1.2-4.2-4.4-4.2H178.8z"/>
	<path class="st3" d="M224.8,337.6h15v18.2h-6.3v-2.9c-1.5,2.3-4.7,3.5-7.9,3.5c-9,0-16.6-7.3-16.6-16.2c0-8.9,7.5-16.2,16.6-16.2
		c5.4,0,10.2,2.6,13.2,6.5l-6.5,4.4c-1.6-2-4-3.2-6.7-3.2c-4.7,0-8.5,3.8-8.5,8.5c0,4.7,3.8,8.5,8.5,8.5c2.8,0,5.2-1.4,6.7-3.6v-0.9
		h-7.6V337.6z"/>
	<path class="st3" d="M268.2,324c9.1,0,16.6,7.3,16.6,16.2c0,8.9-7.4,16.2-16.6,16.2c-9,0-16.6-7.3-16.6-16.2
		C251.6,331.3,259.2,324,268.2,324z M268.2,348.7c4.8,0,8.5-3.8,8.5-8.5c0-4.7-3.7-8.5-8.5-8.5c-4.7,0-8.5,3.8-8.5,8.5
		C259.7,345,263.5,348.7,268.2,348.7z"/>
</g>
</svg>
